<svg width="357" height="78" viewBox="0 0 357 78" fill="none" xmlns="http://www.w3.org/2000/svg">
<path d="M62.9371 46.0754V2.02646C62.9371 0.959904 62.0603 0 60.8547 0C59.7587 0 58.7723 0.853248 58.7723 2.02646V31.8901V44.0489V45.5421C58.7723 46.0754 58.7723 46.502 58.7723 47.0353C58.7723 62.3937 45.4008 74.7658 29.3988 73.6993C15.9178 72.7394 5.06714 62.0738 4.08072 48.9551C2.9847 33.3833 15.6986 20.3713 31.4813 20.3713C38.9342 20.3713 45.8392 23.3577 50.7713 28.0505C51.9769 29.2237 54.0594 28.3705 54.0594 26.7706C54.0594 26.1307 53.7305 25.3841 53.2921 24.9575C47.0448 19.0914 38.2766 15.7851 28.8508 16.5317C13.7257 17.8115 1.55987 29.5437 0.135037 44.2622C-1.6186 62.927 13.9449 78.6054 33.0157 77.6455C49.1273 76.8989 62.1699 64.1002 62.9371 48.4218C62.9371 47.6752 62.9371 46.822 62.9371 46.0754Z" fill="black" fill-opacity="0.04"/>
<path d="M136.371 49.0618C136.371 48.4218 136.48 47.7819 136.48 47.0353C136.48 29.3304 121.026 15.1452 102.504 16.425C87.0497 17.5982 74.6647 29.6504 73.459 44.6889C72.0342 62.6071 86.7209 77.7522 104.915 77.7522C118.944 77.7522 130.891 68.7931 134.946 56.421C135.384 55.1411 134.398 53.8613 132.973 53.8613C132.096 53.8613 131.329 54.3946 131 55.2478C127.274 66.5533 116.094 74.6592 103.052 73.8059C89.461 72.9527 78.5007 62.2871 77.5143 49.1684C76.3087 33.5966 89.1322 20.478 104.915 20.478C119.382 20.478 131.219 31.3569 132.206 45.1155H95.4891C94.3931 45.1155 93.4066 45.9687 93.4066 47.142C93.4066 48.2085 94.2835 49.1684 95.4891 49.1684H132.315H136.371V49.0618Z" fill="black" fill-opacity="0.04"/>
<path d="M210.023 49.0618C210.023 48.4218 210.133 47.7819 210.133 47.0353C210.133 29.3304 194.679 15.1452 176.156 16.425C160.702 17.5982 148.317 29.6504 147.112 44.6889C145.687 62.6071 160.374 77.7522 178.568 77.7522C192.597 77.7522 204.543 68.7931 208.599 56.421C209.037 55.1411 208.051 53.8613 206.626 53.8613C205.749 53.8613 204.982 54.3946 204.653 55.2478C200.926 66.5533 189.747 74.6592 176.704 73.8059C163.223 72.846 152.153 62.1804 151.167 48.9551C149.961 33.3833 162.785 20.2646 178.568 20.2646C193.035 20.2646 204.872 31.1436 205.859 44.9022H164.21C163.114 44.9022 162.127 45.7554 162.127 46.9286C162.127 47.9952 163.004 48.9551 164.21 48.9551H205.859H210.023V49.0618Z" fill="black" fill-opacity="0.04"/>
<path d="M283.347 45.0086H282.909H279.292H224.6C225.696 31.25 237.533 20.3711 251.891 20.3711C264.167 20.3711 274.469 28.157 278.086 39.0359C278.306 39.8891 279.182 40.4224 280.059 40.4224C281.484 40.4224 282.47 39.1426 282.032 37.8627C277.977 25.4906 266.03 16.5315 252.001 16.5315C234.574 16.5315 220.436 30.2901 220.436 47.2484C220.436 47.8883 220.436 48.6349 220.545 49.2749H224.6H279.292C278.196 63.0335 266.359 73.9124 252.001 73.9124C239.726 73.9124 229.423 66.1265 225.806 55.2476C225.587 54.3944 224.71 53.8611 223.833 53.8611C222.408 53.8611 221.422 55.141 221.86 56.4208C225.916 68.7929 237.862 77.752 251.891 77.752C269.318 77.752 283.457 63.9934 283.457 47.0351C283.457 46.3952 283.457 45.6486 283.347 45.0086Z" fill="black" fill-opacity="0.04"/>
<path d="M357 45.0086H356.562H352.835H298.144C299.24 31.25 311.077 20.3711 325.434 20.3711C337.71 20.3711 348.013 28.157 351.629 39.0359C351.849 39.8891 352.725 40.4224 353.602 40.4224C355.027 40.4224 356.014 39.1426 355.575 37.8627C351.52 25.4906 339.573 16.5315 325.544 16.5315C308.117 16.5315 293.979 30.2901 293.979 47.2484C293.979 47.8883 293.979 48.6349 294.088 49.2749H298.144H352.835C351.739 63.0335 339.902 73.9124 325.544 73.9124C313.269 73.9124 302.966 66.1265 299.349 55.2476C299.13 54.3944 298.253 53.8611 297.376 53.8611C295.951 53.8611 294.965 55.141 295.403 56.4208C299.459 68.7929 311.405 77.752 325.434 77.752C342.861 77.752 357 63.9934 357 47.0351C357 46.3952 357 45.6486 357 45.0086Z" fill="black" fill-opacity="0.04"/>
<path d="M104.257 13.8653C103.161 13.8653 102.175 13.012 102.175 11.8388V2.02646C102.175 0.959904 103.051 0 104.257 0C105.353 0 106.34 0.853248 106.34 2.02646V11.9455C106.34 13.012 105.353 13.8653 104.257 13.8653Z" fill="black" fill-opacity="0.04"/>
</svg>
