<svg width="20" height="25" viewBox="0 0 20 25" fill="none" xmlns="http://www.w3.org/2000/svg">
<path d="M10.8824 0.231323C11.4809 0.437044 11.6842 0.859916 11.6784 1.47136C11.661 5.58579 11.6726 9.70021 11.6726 13.8146C11.6726 13.9061 11.6726 14.0032 11.6726 14.1575C11.7714 14.0661 11.8353 14.0146 11.8934 13.9518C12.9451 12.9175 13.991 11.8831 15.0427 10.8488C15.6179 10.2831 16.1525 10.2831 16.7278 10.8488C16.9834 11.0945 17.2391 11.3403 17.4831 11.5974C17.9363 12.0603 17.9421 12.6317 17.4773 13.0832C15.2403 15.289 12.9974 17.489 10.7546 19.6891C10.2839 20.152 9.7203 20.152 9.24965 19.6891C7.01261 17.4948 4.76976 15.2947 2.53272 13.0889C2.06788 12.6317 2.07369 12.066 2.52691 11.6031C2.7942 11.3346 3.06148 11.0717 3.33457 10.8088C3.84589 10.3174 4.40951 10.3117 4.91502 10.8088C5.97834 11.8489 7.04166 12.9003 8.10498 13.9461C8.1689 14.0089 8.21538 14.0832 8.27349 14.1518C8.29673 14.1404 8.31997 14.1346 8.34903 14.1232C8.34903 14.0318 8.34903 13.9461 8.34903 13.8546C8.34903 9.7345 8.35484 5.60865 8.34321 1.48851C8.34321 0.882774 8.53496 0.454188 9.12763 0.237038C9.70868 0.231323 10.2955 0.231323 10.8824 0.231323Z" fill="white"/>
<path d="M10.0042 21.5063C12.9676 21.5063 15.9309 21.5063 18.9001 21.5063C19.6148 21.5063 19.9983 21.8835 19.9983 22.5864C19.9983 22.7235 19.9983 22.8607 19.9983 22.9921C19.9983 23.2721 20.0041 23.5521 19.9925 23.8321C19.975 24.335 19.5741 24.735 19.0628 24.7693C18.9989 24.775 18.935 24.775 18.8652 24.775C12.9502 24.775 7.04089 24.775 1.12581 24.775C0.399496 24.7693 0.0101928 24.3864 0.00438231 23.6607C0.00438231 23.4778 0.00438231 23.295 0.00438231 23.1121C0.00438231 22.8893 -0.00142818 22.6664 0.0101928 22.4435C0.0334348 21.9349 0.428548 21.5406 0.939871 21.5121C1.03865 21.5063 1.13743 21.5063 1.2304 21.5063C4.15888 21.5063 7.08156 21.5063 10.0042 21.5063Z" fill="white"/>
</svg>
