<svg width="36" height="35" viewBox="0 0 36 35" fill="none" xmlns="http://www.w3.org/2000/svg">
<path d="M26.761 17.4449C26.7111 17.4032 26.6567 17.3616 26.6068 17.3153C24.3841 15.0518 22.166 12.7837 19.9433 10.5202C19.9025 10.4786 19.8662 10.4323 19.8481 10.4091C19.4353 10.8257 19.0361 11.2377 18.6279 11.6543C20.2064 13.2651 21.8122 14.9037 23.418 16.5423C23.4134 16.5562 23.4044 16.57 23.3998 16.5839C18.7322 16.5839 14.0646 16.5839 9.38794 16.5839C9.38794 17.1903 9.38794 17.7735 9.38794 18.3753C14.0646 18.3753 18.7277 18.3753 23.3907 18.3753C21.7804 20.0185 20.1792 21.6524 18.5825 23.2818C19.0225 23.7215 19.4262 24.1288 19.839 24.5454C19.8617 24.5269 19.9071 24.4806 19.9479 24.4389C22.1705 22.1755 24.3887 19.9074 26.6113 17.6439C26.6567 17.5976 26.7111 17.556 26.7656 17.5143C26.761 17.4912 26.761 17.468 26.761 17.4449Z" fill="#010101"/>
<circle cx="18.0745" cy="17.475" r="16.5903" stroke="black" stroke-width="1.21208"/>
</svg>
