<svg width="94" height="21" viewBox="0 0 94 21" fill="none" xmlns="http://www.w3.org/2000/svg">
<path d="M16.59 12.4444V0.547325C16.59 0.259259 16.3592 0 16.0418 0C15.7533 0 15.4936 0.230453 15.4936 0.547325V8.61317V11.8971V12.3004C15.4936 12.4444 15.4936 12.5597 15.4936 12.7037C15.4936 16.8519 11.9737 20.1934 7.76126 19.9053C4.21246 19.6461 1.35611 16.7654 1.09644 13.2222C0.807918 9.01646 4.15476 5.50206 8.30945 5.50206C10.2714 5.50206 12.0891 6.30864 13.3874 7.57613C13.7048 7.893 14.253 7.66255 14.253 7.23045C14.253 7.05761 14.1664 6.85597 14.051 6.74074C12.4064 5.15638 10.0983 4.26337 7.617 4.46502C3.63542 4.8107 0.432841 7.97942 0.0577643 11.9547C-0.403869 16.9959 3.69312 21.2305 8.71338 20.9712C12.9546 20.7695 16.388 17.3128 16.59 13.0782C16.59 12.8765 16.59 12.6461 16.59 12.4444Z" fill="#fff"/>
<path d="M35.9208 13.251C35.9208 13.0782 35.9497 12.9053 35.9497 12.7037C35.9497 7.92181 31.8816 4.09054 27.0056 4.43621C22.9374 4.75309 19.6771 8.00823 19.3598 12.07C18.9847 16.9095 22.8509 21 27.6403 21C31.3334 21 34.4782 18.5802 35.5458 15.2387C35.6612 14.893 35.4015 14.5473 35.0264 14.5473C34.7956 14.5473 34.5937 14.6914 34.5071 14.9218C33.5261 17.9753 30.5832 20.1646 27.1498 19.9342C23.5722 19.7037 20.687 16.823 20.4273 13.2798C20.1099 9.07407 23.4856 5.53086 27.6403 5.53086C31.4488 5.53086 34.5648 8.46914 34.8245 12.1852H25.159C24.8705 12.1852 24.6108 12.4156 24.6108 12.7325C24.6108 13.0206 24.8417 13.2798 25.159 13.2798H34.8533H35.9208V13.251Z" fill="#fff"/>
<path d="M55.3094 13.251C55.3094 13.0782 55.3382 12.9053 55.3382 12.7037C55.3382 7.92181 51.2701 4.09054 46.3941 4.43621C42.326 4.75309 39.0657 8.00823 38.7483 12.07C38.3732 16.9095 42.2394 21 47.0289 21C50.7219 21 53.8668 18.5802 54.9343 15.2387C55.0497 14.893 54.7901 14.5473 54.415 14.5473C54.1842 14.5473 53.9822 14.6914 53.8956 14.9218C52.9147 17.9753 49.9718 20.1646 46.5384 19.9342C42.9896 19.6749 40.0755 16.7942 39.8158 13.2222C39.4985 9.01646 42.8742 5.47325 47.0289 5.47325C50.8373 5.47325 53.9533 8.41152 54.213 12.1276H43.2492C42.9607 12.1276 42.701 12.358 42.701 12.6749C42.701 12.963 42.9319 13.2222 43.2492 13.2222H54.213H55.3094V13.251Z" fill="#fff"/>
<path d="M74.6115 12.1564H74.4961H73.544H59.1468C59.4353 8.44033 62.5513 5.50206 66.331 5.50206C69.5624 5.50206 72.2745 7.60494 73.2266 10.5432C73.2843 10.7737 73.5151 10.9177 73.7459 10.9177C74.121 10.9177 74.3807 10.572 74.2653 10.2263C73.1977 6.88477 70.0529 4.46502 66.3598 4.46502C61.7723 4.46502 58.0504 8.18107 58.0504 12.7613C58.0504 12.9342 58.0504 13.1358 58.0793 13.3086H59.1468H73.544C73.2554 17.0247 70.1394 19.963 66.3598 19.963C63.1284 19.963 60.4163 17.8601 59.4642 14.9218C59.4065 14.6914 59.1756 14.5473 58.9448 14.5473C58.5698 14.5473 58.3101 14.893 58.4255 15.2387C59.493 18.5802 62.6379 21 66.331 21C70.9184 21 74.6404 17.2839 74.6404 12.7037C74.6404 12.5309 74.6404 12.3292 74.6115 12.1564Z" fill="#fff"/>
<path d="M94.0001 12.1564H93.8847H92.9037H78.5065C78.7951 8.44033 81.9111 5.50206 85.6907 5.50206C88.9221 5.50206 91.6342 7.60494 92.5863 10.5432C92.644 10.7737 92.8749 10.9177 93.1057 10.9177C93.4808 10.9177 93.7404 10.572 93.625 10.2263C92.5575 6.88477 89.4126 4.46502 85.7196 4.46502C81.1321 4.46502 77.4102 8.18107 77.4102 12.7613C77.4102 12.9342 77.4102 13.1358 77.439 13.3086H78.5065H92.9037C92.6152 17.0247 89.4992 19.963 85.7196 19.963C82.4881 19.963 79.776 17.8601 78.8239 14.9218C78.7662 14.6914 78.5354 14.5473 78.3046 14.5473C77.9295 14.5473 77.6698 14.893 77.7852 15.2387C78.8528 18.5802 81.9976 21 85.6907 21C90.2782 21 94.0001 17.2839 94.0001 12.7037C94.0001 12.5309 94.0001 12.3292 94.0001 12.1564Z" fill="#fff"/>
<path d="M27.4673 3.74486C27.1787 3.74486 26.9191 3.5144 26.9191 3.19753V0.547325C26.9191 0.259259 27.1499 0 27.4673 0C27.7558 0 28.0154 0.230453 28.0154 0.547325V3.22634C28.0154 3.5144 27.7558 3.74486 27.4673 3.74486Z" fill="#fff"/>
</svg>
