<svg width="36" height="35" viewBox="0 0 36 35" fill="none" xmlns="http://www.w3.org/2000/svg">
<path d="M27.7999 18.4449C27.75 18.4032 27.6955 18.3616 27.6456 18.3153C25.423 16.0518 23.2048 13.7837 20.9822 11.5202C20.9413 11.4786 20.905 11.4323 20.8869 11.4091C20.4741 11.8257 20.0749 12.2377 19.6667 12.6543C21.2453 14.2651 22.851 15.9037 24.4568 17.5423C24.4522 17.5562 24.4432 17.57 24.4386 17.5839C19.771 17.5839 15.1034 17.5839 10.4268 17.5839C10.4268 18.1903 10.4268 18.7735 10.4268 19.3753C15.1034 19.3753 19.7665 19.3753 24.4296 19.3753C22.8193 21.0185 21.218 22.6524 19.6213 24.2818C20.0613 24.7215 20.4651 25.1288 20.8778 25.5454C20.9005 25.5269 20.9459 25.4806 20.9867 25.4389C23.2094 23.1755 25.4275 20.9074 27.6502 18.6439C27.6955 18.5976 27.75 18.556 27.8044 18.5143C27.7999 18.4912 27.7999 18.468 27.7999 18.4449Z" fill="#010101"/>
<circle cx="18.1133" cy="17.475" r="16.5903" stroke="black" stroke-width="1.21208"/>
</svg>
