<svg width="357" height="78" viewBox="0 0 357 78" fill="none" xmlns="http://www.w3.org/2000/svg">
<path d="M62.9371 46.0754V2.02646C62.9371 0.959904 62.0603 0 60.8547 0C59.7587 0 58.7723 0.853248 58.7723 2.02646V31.8901V44.0489V45.5421C58.7723 46.0754 58.7723 46.502 58.7723 47.0353C58.7723 62.3937 45.4008 74.7658 29.3988 73.6993C15.9178 72.7394 5.06714 62.0738 4.08072 48.9551C2.9847 33.3833 15.6986 20.3713 31.4813 20.3713C38.9342 20.3713 45.8392 23.3577 50.7713 28.0505C51.9769 29.2237 54.0594 28.3705 54.0594 26.7706C54.0594 26.1307 53.7305 25.3841 53.2921 24.9575C47.0448 19.0914 38.2766 15.7851 28.8508 16.5317C13.7257 17.8115 1.55987 29.5437 0.135037 44.2622C-1.6186 62.927 13.9449 78.6054 33.0157 77.6455C49.1273 76.8989 62.1699 64.1002 62.9371 48.4218C62.9371 47.6752 62.9371 46.822 62.9371 46.0754Z" fill="black" fill-opacity="0.04"/>
<path d="M136.371 49.0618C136.371 48.4218 136.48 47.7819 136.48 47.0353C136.48 29.3304 121.026 15.1452 102.504 16.425C87.0497 17.5982 74.6647 29.6504 73.459 44.6889C72.0342 62.6071 86.7209 77.7522 104.915 77.7522C118.944 77.7522 130.891 68.7931 134.946 56.421C135.384 55.1411 134.398 53.8613 132.973 53.8613C132.096 53.8613 131.329 54.3946 131 55.2478C127.274 66.5533 116.094 74.6592 103.052 73.8059C89.461 72.9527 78.5007 62.2871 77.5143 49.1684C76.3087 33.5966 89.1322 20.478 104.915 20.478C119.382 20.478 131.219 31.3569 132.206 45.1155H95.4891C94.3931 45.1155 93.4066 45.9687 93.4066 47.142C93.4066 48.2085 94.2835 49.1684 95.4891 49.1684H132.315H136.371V49.0618Z" fill="black" fill-opacity="0.04"/>
<path d="M210.023 49.0618C210.023 48.4218 210.133 47.7819 210.133 47.0353C210.133 29.3304 194.679 15.1452 176.156 16.425C160.702 17.5982 148.317 29.6504 147.112 44.6889C145.687 62.6071 160.374 77.7522 178.568 77.7522C192.597 77.7522 204.543 68.7931 208.599 56.421C209.037 55.1411 208.051 53.8613 206.626 53.8613C205.749 53.8613 204.982 54.3946 204.653 55.2478C200.926 66.5533 189.747 74.6592 176.704 73.8059C163.223 72.846 152.153 62.1804 151.167 48.9551C149.961 33.3833 162.785 20.2646 178.568 20.2646C193.035 20.2646 204.872 31.1436 205.859 44.9022H164.21C163.114 44.9022 162.127 45.7554 162.127 46.9286C162.127 47.9952 163.004 48.9551 164.21 48.9551H205.859H210.023V49.0618Z" fill="black" fill-opacity="0.04"/>
<path d="M283.347 45.0086H282.909H279.292H224.6C225.696 31.25 237.533 20.3711 251.891 20.3711C264.167 20.3711 274.469 28.157 278.086 39.0359C278.306 39.8891 279.182 40.4224 280.059 40.4224C281.484 40.4224 282.47 39.1426 282.032 37.8627C277.977 25.4906 266.03 16.5315 252.001 16.5315C234.574 16.5315 220.436 30.2901 220.436 47.2484C220.436 47.8883 220.436 48.6349 220.545 49.2749H224.6H279.292C278.196 63.0335 266.359 73.9124 252.001 73.9124C239.726 73.9124 229.423 66.1265 225.806 55.2476C225.587 54.3944 224.71 53.8611 223.833 53.8611C222.408 53.8611 221.422 55.141 221.86 56.4208C225.916 68.7929 237.862 77.752 251.891 77.752C269.318 77.752 283.457 63.9934 283.457 47.0351C283.457 46.3952 283.457 45.6486 283.347 45.0086Z" fill="black" fill-opacity="0.04"/>
<path d="M357 45.0086H356.562H352.835H298.144C299.24 31.25 311.077 20.3711 325.434 20.3711C337.71 20.3711 348.013 28.157 351.629 39.0359C351.849 39.8891 352.725 40.4224 353.602 40.4224C355.027 40.4224 356.014 39.1426 355.575 37.8627C351.52 25.4906 339.573 16.5315 325.544 16.5315C308.117 16.5315 293.979 30.2901 293.979 47.2484C293.979 47.8883 293.979 48.6349 294.088 49.2749H298.144H352.835C351.739 63.0335 339.902 73.9124 325.544 73.9124C313.269 73.9124 302.966 66.1265 299.349 55.2476C299.13 54.3944 298.253 53.8611 297.376 53.8611C295.951 53.8611 294.965 55.141 295.403 56.4208C299.459 68.7929 311.405 77.752 325.434 77.752C342.861 77.752 357 63.9934 357 47.0351C357 46.3952 357 45.6486 357 45.0086Z" fill="black" fill-opacity="0.04"/>
<path d="M104.257 13.8653C103.161 13.8653 102.175 13.012 102.175 11.8388V2.02646C102.175 0.959904 103.051 0 104.257 0C105.353 0 106.34 0.853248 106.34 2.02646V11.9455C106.34 13.012 105.353 13.8653 104.257 13.8653Z" fill="black" fill-opacity="0.04"/>
<path d="M146.772 49.0104V36.5722C146.772 36.271 146.524 36 146.184 36C145.874 36 145.596 36.2409 145.596 36.5722V45.0049V48.4382V48.8598C145.596 49.0104 145.596 49.1308 145.596 49.2814C145.596 53.6182 141.82 57.1117 137.301 56.8106C133.495 56.5395 130.431 53.5279 130.152 49.8235C129.843 45.4265 133.433 41.7523 137.889 41.7523C139.994 41.7523 141.944 42.5955 143.336 43.9207C143.677 44.2519 144.265 44.011 144.265 43.5593C144.265 43.3786 144.172 43.1677 144.048 43.0473C142.284 41.3909 139.808 40.4573 137.147 40.6681C132.876 41.0295 129.44 44.3423 129.038 48.4984C128.543 53.7688 132.938 58.1959 138.323 57.9249C142.872 57.7141 146.555 54.1001 146.772 49.6729C146.772 49.4621 146.772 49.2212 146.772 49.0104Z" fill="black"/>
<path d="M167.507 49.8536C167.507 49.6729 167.538 49.4922 167.538 49.2814C167.538 44.282 163.174 40.2765 157.944 40.6379C153.58 40.9692 150.083 44.3724 149.743 48.6188C149.34 53.6784 153.487 57.955 158.625 57.955C162.586 57.955 165.96 55.4252 167.105 51.9316C167.229 51.5702 166.95 51.2088 166.548 51.2088C166.3 51.2088 166.084 51.3594 165.991 51.6003C164.938 54.7927 161.782 57.0816 158.099 56.8406C154.261 56.5997 151.166 53.588 150.888 49.8837C150.547 45.4867 154.168 41.7823 158.625 41.7823C162.71 41.7823 166.053 44.8542 166.331 48.7393H155.963C155.654 48.7393 155.375 48.9802 155.375 49.3115C155.375 49.6127 155.623 49.8837 155.963 49.8837H166.362H167.507V49.8536Z" fill="black"/>
<path d="M188.305 49.8536C188.305 49.6729 188.336 49.4922 188.336 49.2814C188.336 44.282 183.972 40.2765 178.742 40.6379C174.378 40.9692 170.881 44.3724 170.54 48.6188C170.138 53.6784 174.285 57.955 179.422 57.955C183.384 57.955 186.757 55.4252 187.902 51.9316C188.026 51.5702 187.748 51.2088 187.345 51.2088C187.098 51.2088 186.881 51.3594 186.788 51.6003C185.736 54.7927 182.579 57.0816 178.896 56.8406C175.09 56.5696 171.964 53.5579 171.685 49.8235C171.345 45.4264 174.966 41.7221 179.422 41.7221C183.508 41.7221 186.85 44.794 187.129 48.679H175.368C175.059 48.679 174.78 48.92 174.78 49.2513C174.78 49.5524 175.028 49.8235 175.368 49.8235H187.129H188.305V49.8536Z" fill="black"/>
<path d="M209.009 48.7091H208.885H207.864H192.421C192.73 44.8241 196.073 41.7522 200.127 41.7522C203.593 41.7522 206.502 43.9507 207.524 47.0226C207.585 47.2635 207.833 47.4141 208.081 47.4141C208.483 47.4141 208.762 47.0527 208.638 46.6913C207.493 43.1978 204.119 40.668 200.158 40.668C195.237 40.668 191.245 44.553 191.245 49.3415C191.245 49.5222 191.245 49.7331 191.276 49.9138H192.421H207.864C207.555 53.7988 204.212 56.8707 200.158 56.8707C196.692 56.8707 193.782 54.6722 192.761 51.6003C192.699 51.3594 192.452 51.2088 192.204 51.2088C191.802 51.2088 191.523 51.5702 191.647 51.9316C192.792 55.4251 196.165 57.9549 200.127 57.9549C205.048 57.9549 209.04 54.0698 209.04 49.2813C209.04 49.1006 209.04 48.8898 209.009 48.7091Z" fill="black"/>
<path d="M229.807 48.7091H229.683H228.631H213.187C213.497 44.8241 216.839 41.7522 220.893 41.7522C224.36 41.7522 227.269 43.9507 228.29 47.0226C228.352 47.2635 228.6 47.4141 228.847 47.4141C229.25 47.4141 229.528 47.0527 229.404 46.6913C228.259 43.1978 224.886 40.668 220.924 40.668C216.004 40.668 212.011 44.553 212.011 49.3415C212.011 49.5222 212.011 49.7331 212.042 49.9138H213.187H228.631C228.321 53.7988 224.979 56.8707 220.924 56.8707C217.458 56.8707 214.549 54.6722 213.528 51.6003C213.466 51.3594 213.218 51.2088 212.971 51.2088C212.568 51.2088 212.29 51.5702 212.414 51.9316C213.559 55.4251 216.932 57.9549 220.893 57.9549C225.814 57.9549 229.807 54.0698 229.807 49.2813C229.807 49.1006 229.807 48.8898 229.807 48.7091Z" fill="black"/>
<path d="M158.439 39.9152C158.13 39.9152 157.851 39.6742 157.851 39.3429V36.5722C157.851 36.271 158.099 36 158.439 36C158.749 36 159.027 36.2409 159.027 36.5722V39.3731C159.027 39.6742 158.749 39.9152 158.439 39.9152Z" fill="black"/>
</svg>
