<svg width="31" height="31" viewBox="0 0 31 31" fill="none" xmlns="http://www.w3.org/2000/svg">
  <path d="M7.4915 15.1134C7.53543 15.0767 7.58336 15.04 7.62729 14.9993C9.58416 13.0065 11.5371 11.0096 13.4939 9.01678C13.5299 8.9801 13.5618 8.93935 13.5778 8.91897C13.9412 9.28575 14.2927 9.64844 14.6521 10.0152C13.2623 11.4334 11.8486 12.876 10.4348 14.3187C10.4388 14.3309 10.4468 14.3431 10.4508 14.3554C14.5602 14.3554 18.6697 14.3554 22.7871 14.3554C22.7871 14.8892 22.7871 15.4027 22.7871 15.9325C18.6697 15.9325 14.5642 15.9325 10.4588 15.9325C11.8765 17.3792 13.2863 18.8178 14.692 20.2523C14.3046 20.6394 13.9492 20.998 13.5858 21.3648C13.5658 21.3485 13.5259 21.3078 13.4899 21.2711C11.5331 19.2783 9.58017 17.2814 7.62329 15.2886C7.58336 15.2478 7.53543 15.2112 7.48751 15.1745C7.4915 15.1541 7.4915 15.1337 7.4915 15.1134Z" fill="#616161"/>
  <circle r="14.6064" transform="matrix(-1 0 0 1 15.1393 15.14)" stroke="#616161" stroke-width="1.06714"/>
</svg>
