<svg width="24" height="25" viewBox="0 0 24 25" fill="none" xmlns="http://www.w3.org/2000/svg">
<path d="M18.1088 24.0018C17.5208 23.8756 16.9286 23.7782 16.3523 23.6173C15.1638 23.2863 14.0588 22.7544 12.9927 22.1404C9.97298 20.3993 7.39197 18.1322 5.10206 15.524C3.61661 13.8316 2.31876 12.0089 1.31788 9.98716C0.701588 8.74325 0.216436 7.4518 0.0506027 6.06406C-0.0534844 5.19292 -0.0246693 4.32647 0.40344 3.52928C0.540232 3.27539 0.711398 3.04152 0.912114 2.83424C1.60956 2.11514 2.33228 1.42303 3.03267 0.706272C4.00356 -0.285803 5.51194 -0.183661 6.42873 0.706272C7.52193 1.76938 8.5975 2.85068 9.66836 3.93492C10.6093 4.89177 10.6187 6.3247 9.68248 7.19761C9.47346 7.38478 9.23191 7.5322 8.96974 7.6326C8.31523 7.89031 7.79891 8.28244 7.51429 8.9405C7.32714 9.36615 7.29469 9.84367 7.42255 10.2907C7.77127 11.5939 8.51282 12.6664 9.40373 13.6467C10.3311 14.6669 11.3808 15.5369 12.6298 16.1439C13.1803 16.411 13.7472 16.6482 14.3817 16.5654C15.2426 16.4533 15.8983 16.0371 16.2388 15.2193C16.4499 14.7121 16.6981 14.2478 17.1826 13.9455C18.0894 13.379 19.2067 13.4817 20.0053 14.2601C21.132 15.3559 22.2445 16.4662 23.3426 17.5909C24.24 18.5143 24.2064 19.9866 23.2967 20.9111C22.5781 21.6408 21.8465 22.3588 21.1209 23.0831C20.6081 23.5974 19.9771 23.8574 19.2679 23.9537C19.2083 23.9651 19.1494 23.98 19.0915 23.9983L18.1088 24.0018Z" fill="black"/>
</svg>
