<svg width="20" height="28" viewBox="0 0 20 28" fill="none" xmlns="http://www.w3.org/2000/svg">
<path d="M10.0207 0C12.3961 0.0198744 14.6885 0.898417 16.4942 2.48093C18.2999 4.06344 19.5032 6.24843 19.8921 8.65117C20.1956 10.5242 19.8208 12.2705 19.1335 13.9833C18.057 16.6575 16.63 19.1373 15.0368 21.5128C13.6667 23.5577 12.2147 25.5459 10.7885 27.5496C10.3629 28.1455 9.69223 28.147 9.25525 27.5737C6.79954 24.3535 4.49555 21.0266 2.54434 17.4563C1.58845 15.7124 0.722085 13.9234 0.240349 11.9726C-0.251249 9.97894 0.0408269 8.04523 0.84726 6.21107C2.32357 2.84613 4.87563 0.836181 8.4162 0.167236C8.94118 0.0676723 9.48285 0.0536711 10.0207 0ZM6.37243 9.352C6.38498 10.3314 6.77294 11.2664 7.45244 11.9549C8.13195 12.6434 9.04841 13.03 10.0037 13.0312C10.959 13.0324 11.8764 12.6482 12.5576 11.9614C13.2388 11.2747 13.629 10.3407 13.644 9.36133C13.644 7.30161 12.0197 5.62769 10.026 5.62302C9.54719 5.62139 9.07274 5.7166 8.62983 5.90321C8.18692 6.08981 7.78426 6.36416 7.44489 6.71053C7.10552 7.05689 6.83611 7.46849 6.65208 7.92175C6.46805 8.37501 6.37302 8.86104 6.37243 9.352Z" fill="black"/>
</svg>
