<svg width="26" height="19" viewBox="0 0 26 19" fill="none" xmlns="http://www.w3.org/2000/svg">
<path d="M25.002 5.33995V16.978C24.9928 16.9912 24.9785 17.0038 24.9752 17.0184C24.6438 18.3615 23.8389 18.9999 22.473 18.9999H2.52896C2.44808 18.9999 2.36654 18.9999 2.285 18.9999C0.973882 18.951 0.00587069 17.9506 0.0019569 16.6207C-0.000652299 12.9235 -0.000652299 9.22591 0.0019569 5.52785C0.00520507 5.46447 0.0117371 5.40131 0.0215259 5.33862C0.0652299 5.3631 0.0867557 5.37369 0.107629 5.38692L10.2372 12.2401C11.7518 13.2643 13.2514 13.2663 14.7674 12.2401C17.7854 10.2009 20.8029 8.16113 23.82 6.12067C24.2114 5.85536 24.608 5.5993 25.002 5.33995Z" fill="black"/>
<path d="M25.0021 2.6657C24.9095 2.91778 24.8599 3.20096 24.7131 3.41599C24.5129 3.70843 24.2781 4.00682 23.9917 4.20201C20.5998 6.51771 17.1978 8.82062 13.7858 11.1107C12.945 11.6758 12.0573 11.6738 11.2171 11.1107C7.80122 8.81312 4.39078 6.50734 0.985785 4.1934C0.167803 3.63896 -0.17074 2.67827 0.0895268 1.72024C0.355012 0.741686 1.18213 0.0734408 2.21211 0.00529303C2.28516 0 2.35822 0 2.43128 0C9.14474 0 15.8582 0 22.5717 0C23.6806 0 24.552 0.604067 24.8808 1.59916C24.9265 1.7381 24.9623 1.88035 25.0021 2.02194V2.6657Z" fill="black"/>
</svg>
