<svg width="22" height="18" viewBox="0 0 22 18" fill="none" xmlns="http://www.w3.org/2000/svg">
<g clip-path="url(#clip0_121_3267)">
<path d="M11.0041 0C14.3076 0 17.619 0 20.9226 0C21.4732 0 21.835 0.248383 21.9687 0.714101C22.1103 1.21863 21.7721 1.76197 21.2451 1.84735C21.1114 1.87063 20.9698 1.87063 20.8361 1.87063C14.284 1.87063 7.72415 1.87063 1.17213 1.87063C0.991221 1.87063 0.794582 1.86287 0.62154 1.80078C0.204664 1.66106 -0.0548994 1.21863 0.00802514 0.815006C0.0788153 0.372574 0.440632 0.0465718 0.9047 0.00776197C1.00695 0 1.10134 0 1.20359 0C4.4678 0 7.73988 0 11.0041 0Z" fill="#898989"/>
<path d="M11.004 8.32083C14.3075 8.32083 17.6189 8.32083 20.9225 8.32083C21.473 8.32083 21.8349 8.56921 21.9686 9.03493C22.1102 9.53946 21.7719 10.0828 21.2449 10.1682C21.1112 10.1915 20.9696 10.1915 20.8359 10.1915C14.2839 10.1915 7.72403 10.1915 1.17201 10.1915C0.991099 10.1915 0.79446 10.1837 0.621418 10.1216C0.204542 9.98189 -0.0550215 9.53946 0.00790307 9.13583C0.0786932 8.67788 0.432644 8.35188 0.904578 8.31307C0.998965 8.3053 1.10122 8.31307 1.1956 8.31307C4.46768 8.32083 7.73976 8.32083 11.004 8.32083Z" fill="#898989"/>
<path d="M10.9961 18C7.69254 18 4.38113 18 1.07759 18C0.527003 18 0.165187 17.7439 0.0393376 17.2781C-0.0943771 16.7736 0.251708 16.238 0.770836 16.1449C0.865222 16.1294 0.967475 16.1216 1.06186 16.1216C7.68467 16.1216 14.3075 16.1216 20.9303 16.1294C21.1505 16.1294 21.4022 16.1915 21.591 16.3079C21.9371 16.5097 22.0629 16.9288 21.9607 17.2937C21.8506 17.6818 21.5359 17.9534 21.1191 17.9922C21.0089 18 20.9067 18 20.7966 18C17.5324 18 14.2682 18 10.9961 18Z" fill="#898989"/>
</g>
<defs>
<clipPath id="clip0_121_3267">
<rect width="22" height="18" fill="white"/>
</clipPath>
</defs>
</svg>
