<svg width="15" height="15" viewBox="0 0 15 15" fill="none" xmlns="http://www.w3.org/2000/svg">
<path d="M10.4803 11.8835C7.58767 14.1527 3.74248 13.4838 1.69754 10.9916C-0.364886 8.47751 -0.207583 4.90537 2.07332 2.57058C4.26682 0.318858 7.8848 0.0871277 10.3623 1.99344C12.9491 3.98719 13.7837 7.95284 11.4547 10.9085C11.4984 10.9522 11.5421 11.0003 11.5858 11.044C12.3985 11.8573 13.2156 12.6705 14.024 13.4881C14.426 13.8947 14.2687 14.5375 13.7269 14.6818C13.4472 14.7561 13.2156 14.6686 13.0146 14.4675C12.2063 13.6586 11.3935 12.8498 10.5852 12.0365C10.5458 11.9928 10.5196 11.936 10.4803 11.8835ZM11.4154 6.99094C11.4372 4.34134 9.26558 2.12023 6.63948 2.10274C3.8692 2.08088 1.67569 4.21892 1.65384 6.9647C1.63199 9.66239 3.82113 11.8616 6.53024 11.8704C9.23062 11.8791 11.3979 9.71486 11.4154 6.99094Z" fill="black"/>
</svg>
