<svg width="9" height="16" viewBox="0 0 9 16" fill="none" xmlns="http://www.w3.org/2000/svg">
<g opacity="0.7" clip-path="url(#clip0_121_4762)">
<path d="M2.66565 15.2264C2.66565 15.1682 2.65217 15.11 2.65217 15.0401C2.65217 12.9795 2.65217 10.9072 2.65217 8.8466C2.65217 8.78839 2.65217 8.73018 2.65217 8.64868C1.7894 8.64868 0.953591 8.64868 0.0908203 8.64868C0.0908203 7.78717 0.0908203 6.94895 0.0908203 6.08744C0.940111 6.08744 1.77592 6.08744 2.65217 6.08744C2.65217 6.01759 2.65217 5.95938 2.65217 5.90117C2.65217 5.22593 2.63869 4.56234 2.66565 3.8871C2.70609 3.0838 2.97571 2.33871 3.63627 1.73333C4.13506 1.27929 4.76866 1.01152 5.46966 0.883462C6.04933 0.778684 6.62901 0.790326 7.20868 0.81361C7.68051 0.825252 8.15234 0.860178 8.62416 0.895104C8.66461 0.895104 8.69157 0.906746 8.74549 0.918388C8.74549 1.67512 8.74549 2.43185 8.74549 3.20022C8.69157 3.20022 8.63764 3.20022 8.57024 3.20022C7.99057 3.21186 7.41089 3.20022 6.83122 3.22351C6.1437 3.25843 5.75275 3.58441 5.72579 4.17815C5.69883 4.79518 5.71231 5.4122 5.71231 6.04087C5.71231 6.05251 5.72579 6.05252 5.72579 6.08744C6.68293 6.08744 7.65355 6.08744 8.63764 6.08744C8.50284 6.94895 8.38151 7.79882 8.26018 8.64868C7.41089 8.64868 6.57508 8.64868 5.72579 8.64868C5.72579 8.70689 5.71231 8.74182 5.71231 8.78839C5.71231 10.9072 5.71231 13.0261 5.71231 15.1333C5.71231 15.1682 5.71231 15.2031 5.72579 15.2264C4.71473 15.2264 3.69019 15.2264 2.66565 15.2264Z" fill="black"/>
</g>
<defs>
<clipPath id="clip0_121_4762">
<rect width="8.65467" height="14.4245" fill="white" transform="translate(0.104248 0.801758)"/>
</clipPath>
</defs>
</svg>
