<svg width="17" height="16" viewBox="0 0 17 16" fill="none" xmlns="http://www.w3.org/2000/svg">
<g opacity="0.7" clip-path="url(#clip0_121_4753)">
<path d="M4.58213 0.801758C7.18445 0.801758 9.78975 0.801758 12.3921 0.801758C12.4306 0.810646 12.4662 0.822497 12.5047 0.828423C14.1527 1.06248 15.2671 1.96613 15.8451 3.52454C15.9577 3.82378 15.9903 4.15561 16.0614 4.46967C16.0614 7.07098 16.0614 9.67525 16.0614 12.2766C16.0525 12.318 16.0377 12.3625 16.0347 12.404C15.8243 14.3683 14.1289 15.9267 12.152 15.9385C9.70676 15.9534 7.26152 15.9504 4.81628 15.9326C4.43393 15.9297 4.03676 15.8556 3.6722 15.7371C1.99758 15.1919 0.915746 13.6839 0.915746 11.924C0.912782 9.5597 0.915746 7.19245 0.915746 4.82816C0.915746 4.67706 0.924638 4.52299 0.939457 4.37189C1.09062 2.80163 2.23469 1.41209 3.7463 0.979524C4.01898 0.899529 4.30352 0.861013 4.58213 0.801758ZM13.3968 8.38052C13.3968 7.64575 13.3968 6.91099 13.3968 6.17918C13.3939 4.63558 12.2261 3.46825 10.6819 3.46529C9.21771 3.46529 7.75353 3.46529 6.28935 3.46529C4.74514 3.46529 3.57735 4.63558 3.57439 6.17622C3.57439 7.63983 3.57439 9.10344 3.57439 10.567C3.57439 12.1106 4.74514 13.278 6.28935 13.2809C7.75353 13.2839 9.21771 13.2839 10.6819 13.2809C12.2261 13.278 13.3939 12.1106 13.3968 10.567C13.3968 9.8382 13.3968 9.10936 13.3968 8.38052Z" fill="black"/>
<path d="M12.5105 10.5727C12.5076 11.6156 11.734 12.3919 10.6877 12.3919C9.22057 12.3919 7.75046 12.3919 6.28332 12.3919C5.24891 12.3919 4.46939 11.6127 4.46643 10.5787C4.46643 9.10617 4.46643 7.63367 4.46643 6.16118C4.46643 5.12717 5.24594 4.35093 6.28332 4.35093C7.75639 4.35093 9.22946 4.34796 10.7025 4.35093C11.7281 4.35093 12.5076 5.13013 12.5105 6.15525C12.5135 6.89298 12.5105 7.63367 12.5105 8.3714V10.5727ZM8.47663 10.5876C9.70073 10.5905 10.6996 9.59799 10.7025 8.37733C10.7055 7.15371 9.71258 6.15525 8.49145 6.15229C7.26734 6.14933 6.2685 7.14185 6.26554 8.36251C6.26554 9.58614 7.25845 10.5876 8.47663 10.5876ZM11.0256 6.2708C11.2657 6.27376 11.4702 6.07822 11.4732 5.83824C11.4791 5.59825 11.2835 5.39382 11.0434 5.38493C10.7974 5.37604 10.5869 5.58048 10.5869 5.82639C10.5869 6.06637 10.7855 6.26784 11.0256 6.2708Z" fill="black"/>
<path d="M9.8164 8.37772C9.81937 7.64592 9.22658 7.04744 8.49746 7.04448C7.75944 7.03855 7.15776 7.63407 7.1548 8.36883C7.15183 9.09768 7.74462 9.69912 8.47374 9.70504C9.21176 9.70801 9.8164 9.11249 9.8164 8.37772Z" fill="white"/>
<path d="M9.8164 8.37727C9.81344 9.11203 9.21176 9.70755 8.47374 9.70163C7.74462 9.6957 7.15183 9.09722 7.1548 8.36542C7.15776 7.63065 7.75944 7.03513 8.49746 7.04106C9.22658 7.04699 9.81937 7.64546 9.8164 8.37727Z" fill="black"/>
</g>
<defs>
<clipPath id="clip0_121_4753">
<rect width="15.1457" height="15.1457" fill="white" transform="translate(0.91272 0.801758)"/>
</clipPath>
</defs>
</svg>
