<svg width="19" height="19" viewBox="0 0 19 19" fill="none" xmlns="http://www.w3.org/2000/svg">
<g opacity="0.7" clip-path="url(#clip0_121_4759)">
<path d="M18.239 9.66253C18.2315 14.4686 14.3733 18.321 9.57686 18.3134C4.7954 18.2984 0.922192 14.416 0.929698 9.64C0.937205 4.85646 4.82543 0.989083 9.61439 0.996593C14.3959 1.0041 18.2465 4.86397 18.239 9.66253ZM8.88629 11.3071C9.05893 11.4197 9.20906 11.5174 9.35168 11.6225C9.83207 11.9905 10.3725 12.0505 10.943 11.9604C11.8362 11.8177 12.4818 11.3071 12.9472 10.5562C13.5627 9.5574 13.7353 8.46852 13.5777 7.31957C13.4276 6.24572 12.8646 5.44971 11.9113 4.96911C10.4551 4.24069 8.97637 4.22567 7.52767 5.00665C6.04894 5.80266 5.31333 7.3421 5.60607 8.95664C5.74118 9.70759 6.14652 10.2107 6.89714 10.421C7.00974 10.451 7.06228 10.4285 7.10732 10.3234C7.26495 9.97042 7.23492 9.63249 7.01724 9.31709C6.66445 8.81396 6.64944 8.25826 6.77704 7.69504C7.13734 6.14809 8.87128 5.08175 10.4101 5.46473C11.3633 5.70503 11.9789 6.28326 12.144 7.28953C12.2566 7.95788 12.204 8.6112 12.0089 9.25702C11.8738 9.7226 11.6636 10.1506 11.3258 10.4961C10.913 10.9166 10.4176 11.0668 9.83958 10.8866C9.49429 10.7814 9.31415 10.5411 9.30664 10.1732C9.30664 10.0455 9.30664 9.91034 9.33666 9.79019C9.42674 9.41472 9.54684 9.03924 9.63691 8.66377C9.72699 8.27327 9.82457 7.88278 9.8621 7.48478C9.89212 7.13934 9.69696 6.92157 9.3817 6.79391C8.97637 6.64372 8.60105 6.71881 8.33083 7.06425C7.83542 7.69505 7.73033 8.40845 8.00806 9.1669C8.04559 9.26453 8.06061 9.38468 8.03809 9.4823C7.94801 9.91034 7.84293 10.3459 7.73033 10.7739C7.42258 11.9379 7.17487 13.1094 7.26495 14.3184C7.27996 14.4761 7.29497 14.6338 7.31749 14.8366C8.4134 13.9054 8.60856 12.6062 8.88629 11.3071Z" fill="black"/>
</g>
<defs>
<clipPath id="clip0_121_4759">
<rect width="17.3093" height="17.3093" fill="white" transform="translate(0.92981 0.996582)"/>
</clipPath>
</defs>
</svg>
