<svg width="16" height="14" viewBox="0 0 16 14" fill="none" xmlns="http://www.w3.org/2000/svg">
<g opacity="0.7" clip-path="url(#clip0_121_4765)">
<path d="M0 12.04C1.75719 12.1594 3.33189 11.7388 4.7658 10.6639C3.25889 10.5237 2.2734 9.77073 1.71027 8.37906C2.20562 8.37906 2.66447 8.37906 3.12332 8.37906C3.12332 8.36349 3.12854 8.34271 3.12854 8.32714C1.54341 7.83382 0.693492 6.76929 0.563137 5.07644C1.04285 5.30492 1.49648 5.4659 2.03355 5.47109C1.2097 4.80642 0.693492 4.00153 0.610065 2.96816C0.557922 2.31906 0.729992 1.7167 1.05849 1.12472C2.83133 3.18626 5.04216 4.34426 7.7327 4.51562C7.7327 4.15212 7.71184 3.81459 7.73791 3.48225C7.87348 1.79978 9.32825 0.49639 11.0385 0.522354C11.9093 0.537932 12.6601 0.8495 13.2859 1.45187C13.3641 1.52456 13.4319 1.55053 13.5414 1.52456C14.1514 1.37397 14.7354 1.16626 15.2829 0.865079C15.3194 0.844308 15.3507 0.828729 15.3872 0.813151C15.3976 0.807958 15.408 0.818344 15.4445 0.823536C15.1995 1.55053 14.7458 2.11135 14.1097 2.52678C14.1201 2.54755 14.1306 2.56832 14.141 2.58909C14.7093 2.43331 15.2777 2.27233 15.8669 2.11135C15.82 2.17886 15.7783 2.25156 15.7261 2.31906C15.3559 2.83315 14.9127 3.27973 14.4069 3.65881C14.2922 3.74189 14.2609 3.82498 14.2609 3.96518C14.3756 7.60534 12.2065 11.1988 8.9059 12.6372C5.93379 13.9354 2.99818 13.7588 0.166855 12.149C0.114713 12.1179 0.0573565 12.0763 0 12.04Z" fill="black"/>
</g>
<defs>
<clipPath id="clip0_121_4765">
<rect width="15.8669" height="12.982" fill="white" transform="translate(0 0.522461)"/>
</clipPath>
</defs>
</svg>
