<svg width="21" height="15" viewBox="0 0 21 15" fill="none" xmlns="http://www.w3.org/2000/svg">
<g opacity="0.7" clip-path="url(#clip0_121_4768)">
<path d="M10.2936 14.2256C12.2916 14.1457 14.2896 14.0732 16.2876 13.9861C16.7581 13.9643 17.2286 13.899 17.6919 13.8191C18.8212 13.6159 19.5451 12.8466 19.755 11.6562C20.0446 10.0232 20.1098 8.36833 20.0519 6.71349C20.0157 5.55945 19.8998 4.40542 19.7912 3.25139C19.7116 2.40945 19.3641 1.6909 18.6258 1.21187C18.1697 0.92155 17.663 0.834453 17.1418 0.776388C15.1365 0.565905 13.1241 0.515098 11.1044 0.522356C9.06299 0.529614 7.02158 0.594937 4.98018 0.66026C4.32866 0.682034 3.66991 0.761872 3.02564 0.863485C1.91082 1.03042 1.15796 1.79252 0.926316 2.93929C0.694667 4.08607 0.643993 5.25462 0.607798 6.41591C0.564364 7.94736 0.607798 9.47881 0.803252 11.003C0.846686 11.3441 0.904599 11.6853 0.991467 12.0191C1.27379 13.0425 2.10628 13.732 3.20661 13.8699C5.11048 14.1095 7.02158 14.1312 8.93269 14.1603C9.38875 14.1675 9.83757 14.1603 10.2936 14.1603C10.2936 14.182 10.2936 14.2038 10.2936 14.2256ZM8.41872 10.2627C8.41872 8.303 8.41872 6.37962 8.41872 4.4272C10.1054 5.39978 11.7776 6.3651 13.4716 7.34494C11.7704 8.32478 10.1054 9.2901 8.41872 10.2627Z" fill="black"/>
</g>
<defs>
<clipPath id="clip0_121_4768">
<rect width="19.473" height="13.7032" fill="white" transform="matrix(1 0 0 -1 0.607788 14.2256)"/>
</clipPath>
</defs>
</svg>
